<mxfile host="app.diagrams.net" modified="2024-04-09T16:14:58.643Z" agent="Mozilla/5.0 (Macintosh; Intel Mac OS X 10_15_7) AppleWebKit/537.36 (KHTML, like Gecko) Chrome/123.0.0.0 Safari/537.36" etag="jYdgA43ipcnHg0H9tIe1" version="24.2.3" type="device">
  <diagram name="Page-1" id="0783ab3e-0a74-02c8-0abd-f7b4e66b4bec">
    <mxGraphModel dx="984" dy="566" grid="1" gridSize="10" guides="1" tooltips="1" connect="1" arrows="1" fold="1" page="1" pageScale="1" pageWidth="850" pageHeight="1100" background="none" math="0" shadow="0">
      <root>
        <mxCell id="0" />
        <mxCell id="1" parent="0" />
        <mxCell id="CuGjUQ30CVmL0A7eA_kO-6" value="" style="swimlane;childLayout=stackLayout;resizeParent=1;resizeParentMax=0;startSize=20;horizontal=0;horizontalStack=1;" vertex="1" parent="1">
          <mxGeometry x="130" y="60" width="510" height="860" as="geometry" />
        </mxCell>
        <mxCell id="CuGjUQ30CVmL0A7eA_kO-7" value="CLIENTE" style="swimlane;startSize=20;" vertex="1" parent="CuGjUQ30CVmL0A7eA_kO-6">
          <mxGeometry x="20" width="240" height="860" as="geometry" />
        </mxCell>
        <mxCell id="CuGjUQ30CVmL0A7eA_kO-13" value="Hacer Pedido" style="rounded=1;whiteSpace=wrap;html=1;" vertex="1" parent="CuGjUQ30CVmL0A7eA_kO-7">
          <mxGeometry x="60" y="130" width="120" height="40" as="geometry" />
        </mxCell>
        <mxCell id="CuGjUQ30CVmL0A7eA_kO-14" value="" style="endArrow=classic;html=1;rounded=0;entryX=0;entryY=0.5;entryDx=0;entryDy=0;" edge="1" parent="CuGjUQ30CVmL0A7eA_kO-7" target="CuGjUQ30CVmL0A7eA_kO-15">
          <mxGeometry width="50" height="50" relative="1" as="geometry">
            <mxPoint x="180" y="150" as="sourcePoint" />
            <mxPoint x="270" y="150" as="targetPoint" />
          </mxGeometry>
        </mxCell>
        <mxCell id="CuGjUQ30CVmL0A7eA_kO-20" value="" style="ellipse;html=1;shape=startState;fillColor=#000000;strokeColor=#ff0000;" vertex="1" parent="CuGjUQ30CVmL0A7eA_kO-7">
          <mxGeometry x="105" y="40" width="30" height="30" as="geometry" />
        </mxCell>
        <mxCell id="CuGjUQ30CVmL0A7eA_kO-21" value="" style="edgeStyle=orthogonalEdgeStyle;html=1;verticalAlign=bottom;endArrow=open;endSize=8;strokeColor=#ff0000;rounded=0;" edge="1" source="CuGjUQ30CVmL0A7eA_kO-20" parent="CuGjUQ30CVmL0A7eA_kO-7">
          <mxGeometry relative="1" as="geometry">
            <mxPoint x="120" y="130" as="targetPoint" />
          </mxGeometry>
        </mxCell>
        <mxCell id="CuGjUQ30CVmL0A7eA_kO-27" value="" style="endArrow=classic;html=1;rounded=0;exitX=0;exitY=0.5;exitDx=0;exitDy=0;" edge="1" parent="CuGjUQ30CVmL0A7eA_kO-7" source="CuGjUQ30CVmL0A7eA_kO-26">
          <mxGeometry width="50" height="50" relative="1" as="geometry">
            <mxPoint x="140" y="300" as="sourcePoint" />
            <mxPoint x="180" y="290" as="targetPoint" />
          </mxGeometry>
        </mxCell>
        <mxCell id="CuGjUQ30CVmL0A7eA_kO-29" value="Evaluar alternativa" style="rounded=1;whiteSpace=wrap;html=1;" vertex="1" parent="CuGjUQ30CVmL0A7eA_kO-7">
          <mxGeometry x="60" y="270" width="120" height="40" as="geometry" />
        </mxCell>
        <mxCell id="CuGjUQ30CVmL0A7eA_kO-31" value="Aceptar alternativa?" style="rhombus;whiteSpace=wrap;html=1;fontColor=#000000;fillColor=#ffffc0;strokeColor=#ff0000;" vertex="1" parent="CuGjUQ30CVmL0A7eA_kO-7">
          <mxGeometry x="80" y="370" width="80" height="40" as="geometry" />
        </mxCell>
        <mxCell id="CuGjUQ30CVmL0A7eA_kO-32" value="SI" style="edgeStyle=orthogonalEdgeStyle;html=1;align=left;verticalAlign=bottom;endArrow=open;endSize=8;strokeColor=#ff0000;rounded=0;" edge="1" source="CuGjUQ30CVmL0A7eA_kO-31" parent="CuGjUQ30CVmL0A7eA_kO-7">
          <mxGeometry x="-1" relative="1" as="geometry">
            <mxPoint x="360" y="390" as="targetPoint" />
          </mxGeometry>
        </mxCell>
        <mxCell id="CuGjUQ30CVmL0A7eA_kO-33" value="no" style="edgeStyle=orthogonalEdgeStyle;html=1;align=left;verticalAlign=top;endArrow=open;endSize=8;strokeColor=#ff0000;rounded=0;" edge="1" source="CuGjUQ30CVmL0A7eA_kO-31" parent="CuGjUQ30CVmL0A7eA_kO-7">
          <mxGeometry x="-1" relative="1" as="geometry">
            <mxPoint x="120" y="470" as="targetPoint" />
            <mxPoint as="offset" />
          </mxGeometry>
        </mxCell>
        <mxCell id="CuGjUQ30CVmL0A7eA_kO-35" value="" style="endArrow=classic;html=1;rounded=0;entryX=0.5;entryY=0;entryDx=0;entryDy=0;" edge="1" parent="CuGjUQ30CVmL0A7eA_kO-7" target="CuGjUQ30CVmL0A7eA_kO-31">
          <mxGeometry width="50" height="50" relative="1" as="geometry">
            <mxPoint x="120" y="310" as="sourcePoint" />
            <mxPoint x="170" y="260" as="targetPoint" />
          </mxGeometry>
        </mxCell>
        <mxCell id="CuGjUQ30CVmL0A7eA_kO-36" value="" style="ellipse;html=1;shape=endState;fillColor=#000000;strokeColor=#ff0000;" vertex="1" parent="CuGjUQ30CVmL0A7eA_kO-7">
          <mxGeometry x="105" y="470" width="30" height="30" as="geometry" />
        </mxCell>
        <mxCell id="CuGjUQ30CVmL0A7eA_kO-8" value="ADMINISTRATIVO" style="swimlane;startSize=20;" vertex="1" parent="CuGjUQ30CVmL0A7eA_kO-6">
          <mxGeometry x="260" width="250" height="860" as="geometry" />
        </mxCell>
        <mxCell id="CuGjUQ30CVmL0A7eA_kO-15" value="Gestionar orden" style="rounded=1;whiteSpace=wrap;html=1;" vertex="1" parent="CuGjUQ30CVmL0A7eA_kO-8">
          <mxGeometry x="70" y="130" width="120" height="40" as="geometry" />
        </mxCell>
        <mxCell id="CuGjUQ30CVmL0A7eA_kO-16" value="" style="endArrow=classic;html=1;rounded=0;" edge="1" parent="CuGjUQ30CVmL0A7eA_kO-8">
          <mxGeometry width="50" height="50" relative="1" as="geometry">
            <mxPoint x="190" y="150" as="sourcePoint" />
            <mxPoint x="220" y="200" as="targetPoint" />
            <Array as="points">
              <mxPoint x="220" y="150" />
            </Array>
          </mxGeometry>
        </mxCell>
        <mxCell id="CuGjUQ30CVmL0A7eA_kO-17" value="Verificar stock" style="rounded=1;whiteSpace=wrap;html=1;" vertex="1" parent="CuGjUQ30CVmL0A7eA_kO-8">
          <mxGeometry x="110" y="200" width="120" height="40" as="geometry" />
        </mxCell>
        <mxCell id="CuGjUQ30CVmL0A7eA_kO-22" value="Hay Stock?" style="rhombus;whiteSpace=wrap;html=1;fontColor=#000000;fillColor=#ffffc0;strokeColor=#ff0000;" vertex="1" parent="CuGjUQ30CVmL0A7eA_kO-8">
          <mxGeometry x="140" y="270" width="80" height="40" as="geometry" />
        </mxCell>
        <mxCell id="CuGjUQ30CVmL0A7eA_kO-24" value="si" style="edgeStyle=orthogonalEdgeStyle;html=1;align=left;verticalAlign=top;endArrow=open;endSize=8;strokeColor=#ff0000;rounded=0;entryX=0.5;entryY=0;entryDx=0;entryDy=0;" edge="1" source="CuGjUQ30CVmL0A7eA_kO-22" parent="CuGjUQ30CVmL0A7eA_kO-8" target="CuGjUQ30CVmL0A7eA_kO-37">
          <mxGeometry x="-1" relative="1" as="geometry">
            <mxPoint x="180" y="350" as="targetPoint" />
          </mxGeometry>
        </mxCell>
        <mxCell id="CuGjUQ30CVmL0A7eA_kO-25" value="no" style="edgeStyle=orthogonalEdgeStyle;html=1;align=left;verticalAlign=bottom;endArrow=open;endSize=8;strokeColor=#ff0000;rounded=0;exitX=0;exitY=0.5;exitDx=0;exitDy=0;" edge="1" parent="CuGjUQ30CVmL0A7eA_kO-8" source="CuGjUQ30CVmL0A7eA_kO-22">
          <mxGeometry x="-1" relative="1" as="geometry">
            <mxPoint x="120" y="290" as="targetPoint" />
            <mxPoint x="40" y="330" as="sourcePoint" />
          </mxGeometry>
        </mxCell>
        <mxCell id="CuGjUQ30CVmL0A7eA_kO-26" value="Recomendar alternativa" style="rounded=1;whiteSpace=wrap;html=1;" vertex="1" parent="CuGjUQ30CVmL0A7eA_kO-8">
          <mxGeometry y="270" width="120" height="40" as="geometry" />
        </mxCell>
        <mxCell id="CuGjUQ30CVmL0A7eA_kO-30" value="" style="endArrow=classic;html=1;rounded=0;exitX=0;exitY=0.5;exitDx=0;exitDy=0;entryX=0.5;entryY=0;entryDx=0;entryDy=0;" edge="1" parent="CuGjUQ30CVmL0A7eA_kO-8" target="CuGjUQ30CVmL0A7eA_kO-22">
          <mxGeometry width="50" height="50" relative="1" as="geometry">
            <mxPoint x="180" y="240" as="sourcePoint" />
            <mxPoint x="120" y="240" as="targetPoint" />
          </mxGeometry>
        </mxCell>
        <mxCell id="CuGjUQ30CVmL0A7eA_kO-37" value="Confirmar orden de compra" style="rounded=1;whiteSpace=wrap;html=1;" vertex="1" parent="CuGjUQ30CVmL0A7eA_kO-8">
          <mxGeometry x="120" y="370" width="120" height="40" as="geometry" />
        </mxCell>
        <mxCell id="CuGjUQ30CVmL0A7eA_kO-38" value="" style="endArrow=classic;html=1;rounded=0;exitX=0;exitY=0.5;exitDx=0;exitDy=0;entryX=0.5;entryY=0;entryDx=0;entryDy=0;" edge="1" parent="CuGjUQ30CVmL0A7eA_kO-8">
          <mxGeometry width="50" height="50" relative="1" as="geometry">
            <mxPoint x="129.5" y="410" as="sourcePoint" />
            <mxPoint x="129.5" y="440" as="targetPoint" />
          </mxGeometry>
        </mxCell>
        <mxCell id="CuGjUQ30CVmL0A7eA_kO-39" value="Verificar cliente" style="rounded=1;whiteSpace=wrap;html=1;" vertex="1" parent="CuGjUQ30CVmL0A7eA_kO-8">
          <mxGeometry x="100" y="440" width="120" height="40" as="geometry" />
        </mxCell>
        <mxCell id="CuGjUQ30CVmL0A7eA_kO-40" value="Cliente registrado?" style="rhombus;whiteSpace=wrap;html=1;fontColor=#000000;fillColor=#ffffc0;strokeColor=#ff0000;" vertex="1" parent="CuGjUQ30CVmL0A7eA_kO-8">
          <mxGeometry x="10" y="510" width="80" height="40" as="geometry" />
        </mxCell>
        <mxCell id="CuGjUQ30CVmL0A7eA_kO-41" value="no" style="edgeStyle=orthogonalEdgeStyle;html=1;align=left;verticalAlign=bottom;endArrow=open;endSize=8;strokeColor=#ff0000;rounded=0;" edge="1" source="CuGjUQ30CVmL0A7eA_kO-40" parent="CuGjUQ30CVmL0A7eA_kO-8">
          <mxGeometry x="-1" relative="1" as="geometry">
            <mxPoint x="130" y="530" as="targetPoint" />
          </mxGeometry>
        </mxCell>
        <mxCell id="CuGjUQ30CVmL0A7eA_kO-43" value="" style="endArrow=classic;html=1;rounded=0;entryX=0.5;entryY=0;entryDx=0;entryDy=0;exitX=0;exitY=0.5;exitDx=0;exitDy=0;" edge="1" parent="CuGjUQ30CVmL0A7eA_kO-8" source="CuGjUQ30CVmL0A7eA_kO-39" target="CuGjUQ30CVmL0A7eA_kO-40">
          <mxGeometry width="50" height="50" relative="1" as="geometry">
            <mxPoint x="140" y="480" as="sourcePoint" />
            <mxPoint x="79.5" y="510" as="targetPoint" />
            <Array as="points">
              <mxPoint x="50" y="460" />
            </Array>
          </mxGeometry>
        </mxCell>
        <mxCell id="CuGjUQ30CVmL0A7eA_kO-45" value="Registrar cliente" style="rounded=1;whiteSpace=wrap;html=1;" vertex="1" parent="CuGjUQ30CVmL0A7eA_kO-8">
          <mxGeometry x="130" y="510" width="120" height="40" as="geometry" />
        </mxCell>
        <mxCell id="CuGjUQ30CVmL0A7eA_kO-46" value="si" style="edgeStyle=orthogonalEdgeStyle;html=1;align=left;verticalAlign=top;endArrow=open;endSize=8;strokeColor=#ff0000;rounded=0;" edge="1" parent="CuGjUQ30CVmL0A7eA_kO-8">
          <mxGeometry x="-1" relative="1" as="geometry">
            <mxPoint x="50" y="600" as="targetPoint" />
            <mxPoint x="49.5" y="550" as="sourcePoint" />
          </mxGeometry>
        </mxCell>
        <mxCell id="CuGjUQ30CVmL0A7eA_kO-47" value="Realizar cobranza" style="rounded=1;whiteSpace=wrap;html=1;" vertex="1" parent="CuGjUQ30CVmL0A7eA_kO-8">
          <mxGeometry x="10" y="600" width="120" height="40" as="geometry" />
        </mxCell>
        <mxCell id="CuGjUQ30CVmL0A7eA_kO-48" value="" style="endArrow=classic;html=1;rounded=0;exitX=0;exitY=0.5;exitDx=0;exitDy=0;entryX=0.5;entryY=0;entryDx=0;entryDy=0;" edge="1" parent="CuGjUQ30CVmL0A7eA_kO-8">
          <mxGeometry width="50" height="50" relative="1" as="geometry">
            <mxPoint x="49.5" y="640" as="sourcePoint" />
            <mxPoint x="49.5" y="670" as="targetPoint" />
          </mxGeometry>
        </mxCell>
        <mxCell id="CuGjUQ30CVmL0A7eA_kO-49" value="Generar factura" style="rounded=1;whiteSpace=wrap;html=1;" vertex="1" parent="CuGjUQ30CVmL0A7eA_kO-8">
          <mxGeometry x="10" y="670" width="120" height="40" as="geometry" />
        </mxCell>
        <mxCell id="CuGjUQ30CVmL0A7eA_kO-50" value="" style="endArrow=classic;html=1;rounded=0;exitX=0;exitY=0.5;exitDx=0;exitDy=0;" edge="1" parent="CuGjUQ30CVmL0A7eA_kO-8">
          <mxGeometry width="50" height="50" relative="1" as="geometry">
            <mxPoint x="49.5" y="710" as="sourcePoint" />
            <mxPoint x="50" y="740" as="targetPoint" />
          </mxGeometry>
        </mxCell>
        <mxCell id="CuGjUQ30CVmL0A7eA_kO-51" value="Generar orden de entrega" style="rounded=1;whiteSpace=wrap;html=1;" vertex="1" parent="CuGjUQ30CVmL0A7eA_kO-8">
          <mxGeometry x="10" y="740" width="120" height="40" as="geometry" />
        </mxCell>
        <mxCell id="CuGjUQ30CVmL0A7eA_kO-52" value="" style="endArrow=classic;html=1;rounded=0;" edge="1" parent="CuGjUQ30CVmL0A7eA_kO-8">
          <mxGeometry width="50" height="50" relative="1" as="geometry">
            <mxPoint x="130" y="760" as="sourcePoint" />
            <mxPoint x="300" y="760" as="targetPoint" />
          </mxGeometry>
        </mxCell>
        <mxCell id="CuGjUQ30CVmL0A7eA_kO-10" value="DISTRIBUIDOR" style="swimlane;startSize=20;" vertex="1" parent="1">
          <mxGeometry x="640" y="60" width="240" height="860" as="geometry" />
        </mxCell>
        <mxCell id="CuGjUQ30CVmL0A7eA_kO-53" value="Gestionar orden de entrega" style="rounded=1;whiteSpace=wrap;html=1;" vertex="1" parent="CuGjUQ30CVmL0A7eA_kO-10">
          <mxGeometry x="50" y="740" width="120" height="40" as="geometry" />
        </mxCell>
        <mxCell id="CuGjUQ30CVmL0A7eA_kO-54" value="" style="ellipse;html=1;shape=endState;fillColor=#000000;strokeColor=#ff0000;" vertex="1" parent="CuGjUQ30CVmL0A7eA_kO-10">
          <mxGeometry x="95" y="820" width="30" height="30" as="geometry" />
        </mxCell>
        <mxCell id="CuGjUQ30CVmL0A7eA_kO-55" value="" style="edgeStyle=orthogonalEdgeStyle;html=1;align=left;verticalAlign=top;endArrow=open;endSize=8;strokeColor=#ff0000;rounded=0;exitX=0.5;exitY=1;exitDx=0;exitDy=0;entryX=0.5;entryY=0;entryDx=0;entryDy=0;" edge="1" parent="CuGjUQ30CVmL0A7eA_kO-10" source="CuGjUQ30CVmL0A7eA_kO-53" target="CuGjUQ30CVmL0A7eA_kO-54">
          <mxGeometry x="-1" relative="1" as="geometry">
            <mxPoint x="110" y="680" as="targetPoint" />
            <mxPoint x="109.5" y="630" as="sourcePoint" />
            <mxPoint as="offset" />
          </mxGeometry>
        </mxCell>
      </root>
    </mxGraphModel>
  </diagram>
</mxfile>
